<svg id="Layer_1" data-name="Layer 1" xmlns="http://www.w3.org/2000/svg" viewBox="0 0 523.29 523.29"><defs><style>.cls-1{fill:#06f;}.cls-2{fill:#fff;}</style></defs><circle class="cls-1" cx="261.64" cy="261.64" r="261.64"/><path class="cls-1" d="M258.71,4.39h6c2.41.45,4.81,1.06,7.24,1.3C283.5,6.87,295.24,7,306.61,9.2c68.92,13.15,124.07,48.25,164.48,105.69,28.56,40.61,43.75,86,45.35,135.73a58,58,0,0,0,1.27,7.77v4c-.45,2.93-1,5.84-1.34,8.77-1.73,14.16-2.37,28.54-5.29,42.45C487,428.35,386.05,511.88,271.45,515.12c-2.26.06-4.49.83-6.74,1.27h-6a53.7,53.7,0,0,0-6.23-1.26c-5.63-.47-11.28-.62-16.91-1.13-28.77-2.62-56.45-9.77-82.18-22.81C63,445.41,13.61,372.18,7,270.65a63.18,63.18,0,0,0-1.3-7.26v-6c.45-2.58,1-5.16,1.33-7.76,1.77-14.31,2.39-28.87,5.37-42.93C36.75,92,137.64,9.11,251.48,5.68A49.19,49.19,0,0,0,258.71,4.39ZM204.27,172.91c-5,0-10-.08-15,0a18,18,0,0,0-18,18.21c-.1,7.17.08,14.34-.05,21.5-.24,13,2.6,11.12-11.88,11.29-2.89,0-4.14-.76-3.64-4.17a11.64,11.64,0,0,0-11-13.79,11.49,11.49,0,0,0-12.43,10.36c-.6,7.73,3.81,12.93,11.3,13.58a28.14,28.14,0,0,1,5.15,1.35c2.92.86,5.78,2.13,8.75,2.53,3.28.44,6.69-.17,10,.24,1.35.17,3.56,1.79,3.57,2.78,0,2.95.14,6.73-1.53,8.69-2.11,2.47-14.28.23-16.62-2.57-4-4.71-8.62-6.92-14.84-6.09-4.54.61-8.39-.26-12-4-4.59-4.74-12.13-3.59-16.46,1.42a12.09,12.09,0,0,0,.95,16.31c4.52,4.47,11.26,4.46,16.2,0,6.08-5.52,13.92-5.5,19.51.57,3.81,4.14,8,5.77,13.65,5.73,13.15-.08,11.15-2.36,11.45,11.72.07,3.51-1.29,4.71-4.7,4.65-8.33-.14-16.67,0-25-.06-4.13-.05-7.86.46-10.91,3.78-.89,1-2.91,1.25-4.41,1.24-6.08,0-11.37,3.2-12.87,8.34-1.39,4.76-.11,8.87,3.46,12.27a11.39,11.39,0,0,0,12.52,2.43c4.64-1.73,7.06-5.45,6.92-10.52-.1-3.56-.12-6.9,4.83-6.89,8.83,0,17.66.05,26.5,0,4.3,0,3.6,3,3.59,5.59s.77,5.66-3.57,5.6c-5.17-.08-10.35-.24-15.49.1-2.34.16-4.59,1.46-6.89,2.22-2.07.68-4.12,1.8-6.21,1.89-6.89.3-12.53,5.38-12.59,11.78-.07,7,5.13,12,12.5,11.95,7-.06,11.22-4.3,11.18-11.79,0-4.5,1.57-6.5,6.13-6.24a75.69,75.69,0,0,0,10,0c4.11-.33,5.12,1.52,5,5.3-.2,9.16-.13,18.33,0,27.5a18.4,18.4,0,0,0,15.42,18.22c4.23.72,8.61.62,12.92.85,4.95.26,11.95-1.39,14.3,1.21,2.68,2.94,1.13,9.67,1.55,14.74.33,3.89-1.05,6.67-3.6,9.78A15.56,15.56,0,0,0,209,392.87c.48,5,4.15,8.23,9.39,8.94,5.81.79,10.27-1.38,12.63-5.94a13.09,13.09,0,0,0-1.8-14c-1.35-1.69-2.81-3.81-3-5.84-.43-5,0-10-.19-15-.2-4.32,2.42-4.25,5.49-4.35,3.37-.11,4.85,1,4.75,4.58-.19,7-.14,14,0,21,0,1.93.15,4.35,1.27,5.66A15.73,15.73,0,0,1,241.43,401c-.71,6.09,5,11.14,11.44,11.38A12,12,0,0,0,265,401.43a11.7,11.7,0,0,0-10.26-12.55c-5.17-.57-8.42-3.9-8.52-9.1-.13-6.33,0-12.66-.05-19,0-2.61.77-4.11,3.67-4.08,7.67.07,15.34-.06,23,.14,1.1,0,3.11,1.49,3.09,2.25-.11,5.52,2.11,11.36-3.89,15.92-4.68,3.55-4.29,11.35-.33,15.78A12,12,0,0,0,288,392.5c4.61-3.58,6.6-12.27,2.52-16.1-5-4.67-4.18-10-4.38-15.54-.17-4.46,2.68-4.16,5.62-4.16s5.78-.27,5.64,4.16c-.2,5.83-.15,11.67,0,17.5.09,3.61-.45,6.55-3.31,9.38-4.5,4.47-3.77,12.2.87,16.64,4.42,4.23,11.06,4.21,15.81-.05s6-11.75,1.48-16c-4.18-3.9-4.39-8.12-4.26-13,.13-4.66.17-9.33,0-14-.13-3.46,1.24-4.77,4.69-4.68,6.33.16,12.67.21,19,0,13-.47,20.52-8.41,20.54-21.35,0-5.83,0-11.67,0-17.5,0-12.92,0-12.92,12.81-12.91,7.72,0,7.7,0,8.25,7.54a11.86,11.86,0,0,0,.72,3.38c2.27,5.87,7.69,8.45,14.32,6.88,5.1-1.21,9.19-7.18,8.62-12.59-.65-6.15-5.87-10.68-12.37-10.89-1.72-.06-4,.06-5-.93-3.07-3-6.59-3.52-10.56-3.37s-8-.21-12,.09c-4.35.33-4.84-2-4.84-5.49s.36-6,5-5.83c7.49.33,15,.07,22.5.09,7,0,7.13.19,7.49,7.24.29,5.57,3.76,9.91,8.64,10.77,6.14,1.09,11.6-1.49,13.79-6.53s1.19-12.12-3.5-14.25c-7.24-3.29-15.07-5.31-22.67-7.81a8.6,8.6,0,0,0-2.49,0c-8,0-16-.09-24,0-3.35.06-5.08-1-4.75-4.59.14-1.48,0-3,0-4.49,0-7.39,0-7.51,7.34-7.36,6.76.14,13,.19,18.09-5.92s13.27-5.69,19.09-.35c4.95,4.54,11.57,4.57,16.18.08a12,12,0,0,0,.72-16.67c-4.49-4.83-12-5.67-16.51-.79-3.36,3.68-7,4.24-11.13,3.74-6.3-.75-11.3,1.06-15.37,6-2.32,2.86-13.68,4.51-16.81,2.79a3.45,3.45,0,0,1-1.43-1.85c-2.19-6.66.17-9.94,7.07-9.94a37.88,37.88,0,0,0,5,0,84.29,84.29,0,0,0,9.08-1.66c2.32-.57,4.49-2,6.82-2.26,6.86-.81,11.18-5.8,10.85-13.06A11.4,11.4,0,0,0,379.78,206a12.18,12.18,0,0,0-12.36,11.32c-.44,6.66-.44,6.66-7.28,6.66a13.21,13.21,0,0,0-2,0c-4.49.64-6.26-1-6-5.77.36-8,.1-16,.09-24,0-14.27-6.91-21.26-21-21.27-5.17,0-10.34-.15-15.5,0-3.44.13-4.8-1.13-4.7-4.62.17-6.16-.26-12.36.18-18.49a15.8,15.8,0,0,1,3.06-7.79c3-4,3.92-8.12,2.24-12.64s-5-7.29-10.15-7.52a10.86,10.86,0,0,0-10.95,6.34,12.73,12.73,0,0,0,1.69,13.59c1.36,1.71,3,3.78,3.15,5.76.37,7.14.28,14.33,0,21.48,0,1.3-1.75,3.59-2.73,3.61-3,.06-6.68.16-8.73-1.48-2.44-1.94-.08-13.31,2.4-15.56,5.1-4.62,5.78-12.74,1.46-17.46a12.4,12.4,0,0,0-17.11-.75c-4.83,4.43-4.73,12.23-.23,17.6a12,12,0,0,1,2.84,6.87c.1,12.85,1.81,10.88-10.53,11-11.37.1-11.64,0-11.26-11.32.21-5.93-.93-10.81-5.9-14.39-3.08-2.21-3.38-5.38-3.36-8.88,0-3.92.4-7.18,3.5-10.34,4.36-4.46,3.63-12.27-.64-16.33s-11.87-4.13-16.42,0-5.63,11.09-1.11,15.57c3.8,3.77,4.42,7.8,4.18,12.59-.22,4.35-.36,8.94,3.68,11.87,5.35,3.89,6.38,9.08,6.16,15.3-.15,4.36-1,6.14-5.83,6.17-5,0-6.86-1.34-6.5-6.5a55.27,55.27,0,0,0-.74-13.34c-.6-3.43-2.53-6.61-3.47-10A12.64,12.64,0,0,0,215.3,134c-5.81,1-9.75,6.74-9,13,.69,5.92,6.4,11.58,11.94,10.45,6.23-1.27,6.3,1.84,6,6.15a34.77,34.77,0,0,0,0,5c.27,3.34-1.34,4.38-4.48,4.28C214.61,172.79,209.44,172.9,204.27,172.91Z"/><path class="cls-2" d="M204.27,172.91c5.17,0,10.34-.12,15.5,0,3.14.1,4.75-.94,4.48-4.28a34.77,34.77,0,0,1,0-5c.28-4.31.21-7.42-6-6.15-5.54,1.13-11.25-4.53-11.94-10.45-.73-6.3,3.21-12,9-13a12.64,12.64,0,0,1,14.57,9.21c.94,3.4,2.87,6.58,3.47,10a55.27,55.27,0,0,1,.74,13.34c-.36,5.16,1.47,6.53,6.5,6.5,4.84,0,5.68-1.81,5.83-6.17.22-6.22-.81-11.41-6.16-15.3-4-2.93-3.9-7.52-3.68-11.87.24-4.79-.38-8.82-4.18-12.59-4.52-4.48-3.56-11.37,1.11-15.57s12.1-4.08,16.42,0,5,11.87.64,16.33c-3.1,3.16-3.49,6.42-3.5,10.34,0,3.5.28,6.67,3.36,8.88,5,3.58,6.11,8.46,5.9,14.39-.38,11.33-.11,11.42,11.26,11.32,12.34-.11,10.63,1.86,10.53-11a12,12,0,0,0-2.84-6.87c-4.5-5.37-4.6-13.17.23-17.6a12.4,12.4,0,0,1,17.11.75c4.32,4.72,3.64,12.84-1.46,17.46-2.48,2.25-4.84,13.62-2.4,15.56,2.05,1.64,5.76,1.54,8.73,1.48,1,0,2.68-2.31,2.73-3.61.27-7.15.36-14.34,0-21.48-.11-2-1.79-4.05-3.15-5.76a12.73,12.73,0,0,1-1.69-13.59,10.86,10.86,0,0,1,10.95-6.34c5.13.23,8.45,3,10.15,7.52s.72,8.65-2.24,12.64a15.8,15.8,0,0,0-3.06,7.79c-.44,6.13,0,12.33-.18,18.49-.1,3.49,1.26,4.75,4.7,4.62,5.16-.19,10.33,0,15.5,0,14.11,0,21,7,21,21.27,0,8,.27,16-.09,24-.22,4.77,1.55,6.41,6,5.77a13.21,13.21,0,0,1,2,0c6.84,0,6.84,0,7.28-6.66A12.18,12.18,0,0,1,379.78,206a11.4,11.4,0,0,1,11.41,10.92c.33,7.26-4,12.25-10.85,13.06-2.33.28-4.5,1.69-6.82,2.26a84.29,84.29,0,0,1-9.08,1.66,37.88,37.88,0,0,1-5,0c-6.9,0-9.26,3.28-7.07,9.94a3.45,3.45,0,0,0,1.43,1.85c3.13,1.72,14.49.07,16.81-2.79,4.07-5,9.07-6.8,15.37-6,4.17.5,7.77-.06,11.13-3.74,4.47-4.88,12-4,16.51.79a12,12,0,0,1-.72,16.67c-4.61,4.49-11.23,4.46-16.18-.08-5.82-5.34-14.16-5.63-19.09.35s-11.33,6.06-18.09,5.92c-7.33-.15-7.33,0-7.34,7.36,0,1.5.12,3,0,4.49-.33,3.58,1.4,4.65,4.75,4.59,8-.13,16,0,24,0a8.6,8.6,0,0,1,2.49,0c7.6,2.5,15.43,4.52,22.67,7.81,4.69,2.13,5.75,9.09,3.5,14.25s-7.65,7.62-13.79,6.53c-4.88-.86-8.35-5.2-8.64-10.77-.36-7.05-.52-7.23-7.49-7.24-7.5,0-15,.24-22.5-.09-4.68-.21-5,2.18-5,5.83s.49,5.82,4.84,5.49c4-.3,8,.06,12-.09s7.49.38,10.56,3.37c1,1,3.31.87,5,.93,6.5.21,11.72,4.74,12.37,10.89.57,5.41-3.52,11.38-8.62,12.59-6.63,1.57-12.05-1-14.32-6.88a11.86,11.86,0,0,1-.72-3.38c-.55-7.53-.53-7.53-8.25-7.54-12.81,0-12.81,0-12.81,12.91,0,5.83,0,11.67,0,17.5,0,12.94-7.57,20.88-20.54,21.35-6.33.23-12.67.18-19,0-3.45-.09-4.82,1.22-4.69,4.68.18,4.66.14,9.33,0,14-.13,4.86.08,9.08,4.26,13,4.56,4.26,3.3,11.72-1.48,16s-11.39,4.28-15.81.05c-4.64-4.44-5.37-12.17-.87-16.64,2.86-2.83,3.4-5.77,3.31-9.38-.15-5.83-.2-11.67,0-17.5.14-4.43-2.7-4.16-5.64-4.16s-5.79-.3-5.62,4.16c.2,5.55-.6,10.87,4.38,15.54,4.08,3.83,2.09,12.52-2.52,16.1a12,12,0,0,1-16.26-1.7c-4-4.43-4.35-12.23.33-15.78,6-4.56,3.78-10.4,3.89-15.92,0-.76-2-2.22-3.09-2.25-7.66-.2-15.33-.07-23-.14-2.9,0-3.7,1.47-3.67,4.08.07,6.33-.08,12.66.05,19,.1,5.2,3.35,8.53,8.52,9.1A11.7,11.7,0,0,1,265,401.43a12,12,0,0,1-12.15,10.93c-6.42-.24-12.15-5.29-11.44-11.38a15.73,15.73,0,0,0-3.87-13.09c-1.12-1.31-1.23-3.73-1.27-5.66-.15-7-.2-14,0-21,.1-3.58-1.38-4.69-4.75-4.58-3.07.1-5.69,0-5.49,4.35.22,5-.24,10,.19,15,.17,2,1.63,4.15,3,5.84a13.09,13.09,0,0,1,1.8,14c-2.36,4.56-6.82,6.73-12.63,5.94-5.24-.71-8.91-4-9.39-8.94a15.56,15.56,0,0,1,2.85-10.43c2.55-3.11,3.93-5.89,3.6-9.78-.42-5.07,1.13-11.8-1.55-14.74-2.35-2.6-9.35-.95-14.3-1.21-4.31-.23-8.69-.13-12.92-.85a18.4,18.4,0,0,1-15.42-18.22c-.09-9.17-.16-18.34,0-27.5.08-3.78-.93-5.63-5-5.3a75.69,75.69,0,0,1-10,0c-4.56-.26-6.16,1.74-6.13,6.24,0,7.49-4.22,11.73-11.18,11.79-7.37.06-12.57-4.91-12.5-11.95.06-6.4,5.7-11.48,12.59-11.78,2.09-.09,4.14-1.21,6.21-1.89,2.3-.76,4.55-2.06,6.89-2.22,5.14-.34,10.32-.18,15.49-.1,4.34.06,3.56-3,3.57-5.6s.71-5.63-3.59-5.59c-8.84.07-17.67,0-26.5,0-5,0-4.93,3.33-4.83,6.89.14,5.07-2.28,8.79-6.92,10.52a11.39,11.39,0,0,1-12.52-2.43c-3.57-3.4-4.85-7.51-3.46-12.27,1.5-5.14,6.79-8.39,12.87-8.34,1.5,0,3.52-.27,4.41-1.24,3.05-3.32,6.78-3.83,10.91-3.78,8.33.08,16.67-.08,25,.06,3.41.06,4.77-1.14,4.7-4.65-.3-14.08,1.7-11.8-11.45-11.72-5.62,0-9.84-1.59-13.65-5.73-5.59-6.07-13.43-6.09-19.51-.57-4.94,4.49-11.68,4.5-16.2,0a12.09,12.09,0,0,1-.95-16.31c4.33-5,11.87-6.16,16.46-1.42,3.64,3.76,7.49,4.63,12,4,6.22-.83,10.89,1.38,14.84,6.09,2.34,2.8,14.51,5,16.62,2.57,1.67-2,1.58-5.74,1.53-8.69,0-1-2.22-2.61-3.57-2.78-3.28-.41-6.69.2-10-.24-3-.4-5.83-1.67-8.75-2.53a28.14,28.14,0,0,0-5.15-1.35c-7.49-.65-11.9-5.85-11.3-13.58A11.49,11.49,0,0,1,144.68,206a11.64,11.64,0,0,1,11,13.79c-.5,3.41.75,4.2,3.64,4.17,14.48-.17,11.64,1.68,11.88-11.29.13-7.16,0-14.33.05-21.5a18,18,0,0,1,18-18.21C194.27,172.83,199.27,172.91,204.27,172.91Zm-23.07,91.5q0,35,0,70c0,8.85,2.78,11.64,11.63,11.64q68.72,0,137.43,0c9.23,0,12-2.71,12-11.83q0-69.72,0-139.43c0-8.81-3.14-11.88-12.13-11.88H193.15c-8.88,0-11.94,3.1-12,12.06Q181.19,229.67,181.2,264.41Z"/><path class="cls-1" d="M181.2,264.41q0-34.74,0-69.47c0-9,3.07-12.05,12-12.06H330.09c9,0,12.13,3.07,12.13,11.88q0,69.72,0,139.43c0,9.12-2.72,11.82-12,11.83q-68.72,0-137.43,0c-8.85,0-11.63-2.79-11.63-11.64Q181.18,299.39,181.2,264.41Zm80.72,72.48q27.24,0,54.48,0c10,0,16.63-5.95,16.68-15.87q.26-56.47,0-112.95c0-9.36-6.95-16-16.29-16.07q-55-.15-110,0c-9.66,0-16.49,6.8-16.52,16.41q-.18,56.22,0,112.45c0,9.76,6.83,16,16.61,16Q234.43,336.91,261.92,336.89Z"/><path class="cls-2" d="M261.92,336.89q-27.48,0-55,0c-9.78,0-16.58-6.26-16.61-16q-.22-56.24,0-112.45c0-9.61,6.86-16.38,16.52-16.41q55-.18,110,0c9.34,0,16.25,6.71,16.29,16.07q.24,56.48,0,113c-.05,9.92-6.69,15.86-16.68,15.87Q289.16,336.91,261.92,336.89Zm-61.71-72q0,26.23,0,52.46c0,7.51,2,9.55,9.4,9.55H314c7.09,0,9.16-2,9.16-9.25q0-53,0-105.92c0-7.56-2.34-9.85-9.84-9.85q-51.21,0-102.42,0c-8.56,0-10.71,2.12-10.72,10.55Q200.19,238.69,200.21,264.91Z"/><path class="cls-1" d="M200.21,264.91q0-26.24,0-52.46c0-8.43,2.16-10.55,10.72-10.55q51.21,0,102.42,0c7.5,0,9.84,2.29,9.84,9.85q0,53,0,105.92c0,7.21-2.07,9.25-9.16,9.25H209.62c-7.36,0-9.39-2-9.4-9.55Q200.18,291.15,200.21,264.91Zm114-.2c0-9.1,0-9.14-9.07-11.07a28,28,0,0,1-3.89-.85c-3.39-1.24-4.69-3.6-3.16-7a29.76,29.76,0,0,1,2.37-3.81c5.25-8.1,5.24-8.19-1.63-15.05-.47-.47-1-.91-1.41-1.41-3.32-3.78-6.94-4.38-10.83-.93-8.39,7.46-13.23,6.55-14.47-6.19-.42-4.3-2.86-6.35-7.32-6.48-11.9-.34-12.22-.18-14.51,11.7-.09.49,0,1-.18,1.48-1.08,3.86-4.72,5.28-8.11,3.1-2.37-1.53-4.49-3.59-7-4.7-1.74-.75-4.39-1-6-.22-9.64,4.9-11.06,10.9-5.07,19.67.47.69,1,1.35,1.38,2.08,1.93,3.58.48,7-3.42,8-2.41.6-4.86,1.11-7.3,1.59-3.63.72-5.47,2.73-5.38,6.58.27,11.34-2,12.67,11.79,14.78a6.58,6.58,0,0,1,1,.21c4.32,1.25,5.63,4.66,3.17,8.45-1.45,2.23-3.42,4.2-4.47,6.59-.77,1.76-1.21,4.38-.45,6,4.06,8.38,11.36,10.34,19,5.51,7.17-4.55,9.69-3.5,11.55,4.77a33.38,33.38,0,0,0,1.45,5.77c.54,1.28,1.73,3.15,2.72,3.22,4.61.3,9.55,1,13.76-.39,2-.64,3.1-5.38,3.87-8.46,2.11-8.39,4.49-9.46,12.09-4.87a25.33,25.33,0,0,0,4.29,2.52,8,8,0,0,0,4.71.52c9.24-3,11.88-10.79,6.47-18.53-.67-1-1.37-1.89-2-2.88-1.94-3.17-1-6.19,2.49-7.6a23.36,23.36,0,0,1,4.36-1C313.56,274.13,314.21,273.36,314.21,264.71Z"/><path class="cls-2" d="M314.21,264.71c0,8.65-.65,9.42-9.23,11.05a23.36,23.36,0,0,0-4.36,1c-3.49,1.41-4.43,4.43-2.49,7.6.61,1,1.31,1.92,2,2.88,5.41,7.74,2.77,15.54-6.47,18.53a8,8,0,0,1-4.71-.52,25.33,25.33,0,0,1-4.29-2.52c-7.6-4.59-10-3.52-12.09,4.87-.77,3.08-1.86,7.82-3.87,8.46-4.21,1.35-9.15.69-13.76.39-1-.07-2.18-1.94-2.72-3.22a33.38,33.38,0,0,1-1.45-5.77c-1.86-8.27-4.38-9.32-11.55-4.77-7.62,4.83-14.92,2.87-19-5.51-.76-1.59-.32-4.21.45-6,1.05-2.39,3-4.36,4.47-6.59,2.46-3.79,1.15-7.2-3.17-8.45a6.58,6.58,0,0,0-1-.21c-13.83-2.11-11.52-3.44-11.79-14.78-.09-3.85,1.75-5.86,5.38-6.58,2.44-.48,4.89-1,7.3-1.59,3.9-1,5.35-4.41,3.42-8-.4-.73-.91-1.39-1.38-2.08-6-8.77-4.57-14.77,5.07-19.67,1.59-.8,4.24-.53,6,.22,2.54,1.11,4.66,3.17,7,4.7,3.39,2.18,7,.76,8.11-3.1.13-.47.09-1,.18-1.48,2.29-11.88,2.61-12,14.51-11.7,4.46.13,6.9,2.18,7.32,6.48,1.24,12.74,6.08,13.65,14.47,6.19,3.89-3.45,7.51-2.85,10.83.93.43.5.94.94,1.41,1.41,6.87,6.86,6.88,7,1.63,15.05a29.76,29.76,0,0,0-2.37,3.81c-1.53,3.44-.23,5.8,3.16,7a28,28,0,0,0,3.89.85C314.18,255.57,314.21,255.61,314.21,264.71Zm-22.48,29.54c-2.81-6.12-7.57-10.69-4.17-18.81s9.51-8.62,16-10.8c-6.54-2.35-12.39-3.26-16.05-11.25-4-8.67,2.7-12.57,4.93-19.85-7.08,3.3-11.33,8.93-19.69,5.41-8.08-3.4-8.83-9.69-11.11-16.25-2,6.81-3.22,12.7-11.11,16.33-8.52,3.92-12.63-2.86-19-4.37,2.73,6.22,7.62,10.53,4.18,18.91-3.32,8.07-9.42,8.78-15.81,11.19,6.92,1.8,12.68,3,16.07,10.87,3.5,8.13-1.76,12.57-5.17,19.33,7.39-2.61,11.45-8.07,20-4.69s8.53,9.67,11.12,16c2.13-6.43,2.05-12.8,10.68-15.8C280.62,287.64,285.35,291.77,291.73,294.25Z"/><path class="cls-1" d="M291.73,294.25c-6.38-2.48-11.11-6.61-19.17-3.81-8.63,3-8.55,9.37-10.68,15.8-2.59-6.3-2.62-12.59-11.12-16s-12.58,2.08-20,4.69c3.41-6.76,8.67-11.2,5.17-19.33-3.39-7.88-9.15-9.07-16.07-10.87,6.39-2.41,12.49-3.12,15.81-11.19,3.44-8.38-1.45-12.69-4.18-18.91,6.42,1.51,10.53,8.29,19,4.37,7.89-3.63,9.1-9.52,11.11-16.33,2.28,6.56,3,12.85,11.11,16.25,8.36,3.52,12.61-2.11,19.69-5.41-2.23,7.28-8.9,11.18-4.93,19.85,3.66,8,9.51,8.9,16.05,11.25-6.53,2.18-12.71,2.8-16,10.8S288.92,288.13,291.73,294.25ZM262,238.65c-15.08-.15-26.38,10.86-26.55,25.85-.15,13.85,12.07,26.2,26.07,26.34S288,279.12,287.93,265C287.84,249.77,277.34,238.63,262,238.65Z"/><path class="cls-2" d="M262,238.65c15.39,0,25.89,11.12,26,26.33.08,14.14-12.43,26-26.46,25.86s-26.22-12.49-26.07-26.34C235.57,249.51,246.87,238.5,262,238.65Zm-.48,10.19c-9.29,0-15.5,6.4-15.44,15.78.06,8.77,7.23,16.16,15.67,16.17,8.64,0,15.78-7.57,15.69-16.65C277.29,254.89,270.93,248.77,261.47,248.84Z"/><path class="cls-1" d="M261.47,248.84c9.46-.07,15.82,6,15.92,15.3.09,9.08-7.05,16.66-15.69,16.65-8.44,0-15.61-7.4-15.67-16.17C246,255.24,252.18,248.89,261.47,248.84Z"/></svg>